<?xml version="1.0" standalone="no"?><!DOCTYPE svg PUBLIC "-//W3C//DTD SVG 1.1//EN" "http://www.w3.org/Graphics/SVG/1.1/DTD/svg11.dtd"><svg t="1495589173311" class="icon" style="" viewBox="0 0 1024 1024" version="1.1" xmlns="http://www.w3.org/2000/svg" p-id="11194" xmlns:xlink="http://www.w3.org/1999/xlink" width="200" height="200"><defs><style type="text/css"></style></defs><path d="M946.549535 36.437887 89.729116 36.437887c-16.019859 0-29.007661 12.986779-29.007661 29.007661l0 540.973892 914.835741 0L975.557196 65.445548C975.557196 49.425689 962.569394 36.437887 946.549535 36.437887zM945.197748 579.233264 91.080903 579.233264 91.080903 90.705861c0-14.956643 12.125155-27.082822 27.081799-27.082822l799.953248 0c14.956643 0 27.081799 12.126178 27.081799 27.082822L945.197748 579.233264z" p-id="11195" fill="#707070"></path><path d="M512.008698 384.343575c-0.01535-0.004093-0.029676-0.014326-0.040932-0.002047 0 0-0.014326 0.023536-0.030699 0.051165 0.008186-0.005117 0.01535-0.008186 0.022513-0.01228l0 0C511.970836 384.365064 511.990279 384.354831 512.008698 384.343575z" p-id="11196" fill="#707070"></path><path d="M512.020978 384.344598c-0.001023 0.001023-0.002047 0.00307-0.00307 0.004093 0.021489-0.00921 0.037862-0.013303 0.040932-0.008186C512.07112 384.370181 512.048607 384.356878 512.020978 384.344598z" p-id="11197" fill="#707070"></path><path d="M512.038374 384.321062c-0.011256 0.007163-0.019443 0.016373-0.029676 0.022513 0.004093 0.001023 0.008186-0.001023 0.013303 0.001023C512.027118 384.335389 512.033257 384.329249 512.038374 384.321062z" p-id="11198" fill="#707070"></path><path d="M512.017908 384.348692c-0.017396 0.007163-0.037862 0.019443-0.059352 0.030699C511.960603 384.427486 511.989255 384.390647 512.017908 384.348692z" p-id="11199" fill="#707070"></path><path d="M512.008698 384.343575c-0.01842 0.011256-0.037862 0.021489-0.049119 0.036839l0 0c0.021489-0.01228 0.041956-0.023536 0.059352-0.030699 0.001023-0.001023 0.002047-0.00307 0.00307-0.004093C512.015861 384.342552 512.012791 384.345622 512.008698 384.343575z" p-id="11200" fill="#707070"></path><path d="M60.721455 653.045363l914.835741 0 0 28.652574-914.835741 0 0-28.652574Z" p-id="11201" fill="#707070"></path><path d="M168.748374 976.895684l260.038666-260.038666 17.464322 17.464322-260.038666 260.038666-17.464322-17.464322Z" p-id="11202" fill="#707070"></path><path d="M838.190596 994.373455l-260.038666-260.038666 17.464322-17.464322 260.038666 260.038666-17.464322 17.464322Z" p-id="11203" fill="#707070"></path></svg>