<?xml version="1.0" standalone="no"?><!DOCTYPE svg PUBLIC "-//W3C//DTD SVG 1.1//EN" "http://www.w3.org/Graphics/SVG/1.1/DTD/svg11.dtd"><svg t="1496676057215" class="icon" style="" viewBox="0 0 1024 1024" version="1.1" xmlns="http://www.w3.org/2000/svg" p-id="2397" xmlns:xlink="http://www.w3.org/1999/xlink" width="200" height="200"><defs><style type="text/css"></style></defs><path d="M143.341151 717.888184c-45.64355 0-82.650395 37.005822-82.650395 82.649372s37.006845 82.651418 82.650395 82.651418c45.64355 0 82.650395-37.007869 82.650395-82.651418S188.9847 717.888184 143.341151 717.888184M143.341151 841.863776c-22.811542 0-41.325198-18.524912-41.325198-41.326221s18.513656-41.325198 41.325198-41.325198c22.821775 0 41.325198 18.523889 41.325198 41.325198S166.162926 841.863776 143.341151 841.863776M391.291312 304.636209l495.90237 0c45.64355 0 82.650395-36.996612 82.650395-82.651418 0-45.64355-37.006845-82.619696-82.650395-82.619696L391.291312 139.365094c-45.64355 0-82.650395 36.976146-82.650395 82.619696C308.641941 267.639596 345.648786 304.636209 391.291312 304.636209M391.291312 180.690292l495.90237 0c22.821775 0 41.324174 18.49319 41.324174 41.294498 0 22.842241-18.502399 41.325198-41.324174 41.325198L391.291312 263.309988c-22.820752 0-41.325198-18.482957-41.325198-41.325198C349.966115 199.184505 368.470561 180.690292 391.291312 180.690292M887.193683 717.888184 391.291312 717.888184c-45.64355 0-82.650395 37.005822-82.650395 82.649372s37.006845 82.651418 82.650395 82.651418l495.90237 0c45.64355 0 82.650395-37.007869 82.650395-82.651418S932.837232 717.888184 887.193683 717.888184M887.193683 841.863776 391.291312 841.863776c-22.820752 0-41.325198-18.524912-41.325198-41.326221s18.504446-41.325198 41.325198-41.325198l495.90237 0c22.821775 0 41.324174 18.523889 41.324174 41.325198S910.015458 841.863776 887.193683 841.863776M887.193683 428.641477 391.291312 428.641477c-45.64355 0-82.650395 36.977169-82.650395 82.650395 0 45.62206 37.006845 82.620719 82.650395 82.620719l495.90237 0c45.64355 0 82.650395-36.997636 82.650395-82.620719C969.844078 465.618647 932.837232 428.641477 887.193683 428.641477M887.193683 552.58637 391.291312 552.58637c-22.820752 0-41.325198-18.482957-41.325198-41.294498 0-22.832008 18.504446-41.355897 41.325198-41.355897l495.90237 0c22.821775 0 41.324174 18.523889 41.324174 41.355897C928.517857 534.104437 910.015458 552.58637 887.193683 552.58637M143.341151 428.641477c-45.64355 0-82.650395 36.977169-82.650395 82.619696 0 45.652759 37.006845 82.651418 82.650395 82.651418 45.64355 0 82.650395-36.997636 82.650395-82.651418C225.990522 465.618647 188.9847 428.641477 143.341151 428.641477M143.341151 552.58637c-22.811542 0-41.325198-18.482957-41.325198-41.325198 0-22.801309 18.513656-41.325198 41.325198-41.325198 22.821775 0 41.325198 18.523889 41.325198 41.325198C184.666348 534.104437 166.162926 552.58637 143.341151 552.58637M143.341151 139.335419c-45.64355 0-82.650395 37.006845-82.650395 82.650395 0 45.653783 37.006845 82.651418 82.650395 82.651418 45.64355 0 82.650395-36.996612 82.650395-82.651418C225.990522 176.342264 188.9847 139.335419 143.341151 139.335419M143.341151 263.311011c-22.811542 0-41.325198-18.482957-41.325198-41.325198 0-22.801309 18.513656-41.325198 41.325198-41.325198 22.821775 0 41.325198 18.523889 41.325198 41.325198C184.666348 244.828055 166.162926 263.311011 143.341151 263.311011" p-id="2398" fill="#2c2c2c"></path></svg>